#!OML:ASF E:/inclinewalkrobotboard/Project1/Captureday1/Session1/subject1.ASF
:FULLY-SPECIFIED
:DEGREES
138
root 0 0 0 0.3899276186173055 -3.132545573200839 1.1839022789858402
lowerback 11.471526342831536 0.6225457553289903 -0.520125018825483
upperback -2.698425624830689 0.7855019490874983 0.05450153943532876
thorax -9.338656117632326 0.3518266792240003 0.2294557862728558
lowerneck -9.969544917343828 0.18665379545670202 2.2699399747774183
upperneck 18.54062565403104 1.019239617653168 -5.3487693426226635
head 7.4723529225476515 0.22491889493375172 -2.0347470144758617
rclavicle 1.4140970049583923E-16 -7.256402133626658E-16
rhumerus 1.135762880417321 2.4198239093855616 -60.38564998105977
rradius 54.876159423524044
rwrist 16.960288214749582
rhand -27.924751814579366 -25.339234986036818
rfingers 7.125019999999987
rthumb -1.3282220531106415 -55.539354097384525
lclavicle -7.984704171353177E-16 -2.220657529173941E-16
lhumerus 1.589132848502775 -9.168188765655323 60.04869546317633
lradius 54.60961870286029
lwrist -10.59765161248395
lhand -38.36461166332051 -33.56376509176385
lfingers 7.125019999999984
lthumb -11.327796948872596 -3.7886900424508596
rfemur -24.70952398589094 1.9180722780645785 20.30088349858239
rtibia 47.44868824114285
rfoot -7.271154061023196 -9.678904812271533
rtoes -1.1749288172877241
lfemur -14.112679147962144 -0.44615526318669263 -17.535958607801877
ltibia 41.64482539674033
lfoot -6.192175079141303 -4.668184763774115
ltoes -6.089872973431425
139
root 0 0 0 0.3963382262018502 -3.0978516780626535 1.198509406193996
lowerback 11.456625282678575 0.6081243822951953 -0.5575433531811255
upperback -2.6918771387942537 0.7623163776434484 0.059522266446691674
thorax -9.323530463146488 0.3418777147991435 0.2530066181339934
lowerneck -9.98797744283729 0.1914313534046186 2.2595055826412884
upperneck 18.484995799039314 1.018325738824144 -5.326562304332525
head 7.454993697632787 0.22698659979497182 -2.0239880054013417
rclavicle 6.3278261166981E-17 -7.673088434705925E-16
rhumerus 0.6262652261408022 2.0707623950871383 -60.686125883980004
rradius 54.4153968526321
rwrist 16.74659034139583
rhand -27.759658194111857 -24.53932124683099
rfingers 7.125019999999987
rthumb -1.171743976328493 -54.75884394436374
lclavicle -8.655926836700177E-16 -2.924401547943652E-16
lhumerus 1.0530665989395018 -9.023850937153027 60.407215938169045
lradius 54.205573320831036
lwrist -10.341141396726846
lhand -38.18670310719907 -32.6797589754182
lfingers 7.125019999999985
lthumb -11.162994913606283 -2.8752693606933732
rfemur -23.998791722176716 2.1172014311790894 20.676811219553354
rtibia 46.48444192809918
rfoot -7.706556862326317 -9.6240274607304
rtoes -1.1834617219586643
lfemur -13.578594574996057 -0.8360686448838108 -17.993023999180057
ltibia 38.79579916029413
lfoot -7.334559193013973 -3.7024788475294166
ltoes -5.711065200273583
140
root 0 0 0 0.44859701706611776 -3.1494832540121562 1.2393760784397314
lowerback 11.490024981041042 0.628308629424411 -0.5371268872675824
upperback -2.7583804645953807 0.7928297781406046 0.027006158800926938
thorax -9.418672714304966 0.35427511509703746 0.20839200246177036
lowerneck -9.845503319538729 0.24661437315874846 2.3477571442303224
upperneck 18.52478901564285 1.1050965078929766 -5.4598748387415075
head 7.444911482854193 0.26254691010527065 -2.073206722744095
rclavicle 1.9066751702595943E-16 -7.432602717051756E-16
rhumerus 2.26368706796244 3.21270533332185 -59.744752689189774
rradius 55.907345769753476
rwrist 17.41376041188417
rhand -28.29645776397667 -27.061678071961122
rfingers 7.125019999999986
rthumb -1.6731416951869864 -57.294666234019246
lclavicle -8.345028817478724E-16 -1.9442201110712888E-16
lhumerus 2.688445935631279 -9.490541683412541 59.30199699663156
lradius 55.473581461343024
lwrist -11.094043586409875
lhand -38.73229812484305 -35.358151453487835
lfingers 7.125019999999983
lthumb -11.6796347817942 -5.638905425178287
rfemur -24.411653457526832 2.0133388875863636 20.45882725696098
rtibia 46.865485559641364
rfoot -7.612861854298963 -9.707908801753096
rtoes -1.296111956983164
lfemur -13.789438801151999 -0.7206548457792893 -17.828842301275017
ltibia 39.65834585639286
lfoot -6.992976496964036 -3.9842704222614955
ltoes -5.843741956783161
141
root 0 0 0 0.4533928079688958 -3.15784983798537 1.2462975103084248
lowerback 11.496911966618166 0.6307992531686855 -0.5334117675254012
upperback -2.7671464781347006 0.7965568746536994 0.02250408973151896
thorax -9.4327382155918 0.35572759671292836 0.2030371733141385
lowerneck -9.825537335519588 0.2527974289582948 2.359896389541454
upperneck 18.539219908902865 1.1161536732141837 -5.479672139208208
head 7.446815722059234 0.2668082997062593 -2.080828316071796
rclavicle 2.0421899851532313E-16 -7.420574023997771E-16
rhumerus 2.479908450135323 3.3659078480777413 -59.62273380574556
rradius 56.10386510126975
rwrist 17.499941448934727
rhand -28.367319397839744 -27.39068642120166
rfingers 7.125019999999986
rthumb -1.7378551541307443 -57.62789143338903
lclavicle -8.365588810992551E-16 -1.8566659758084598E-16
lhumerus 2.916286714825617 -9.554513147819888 59.14470808803024
lradius 55.65077829383591
lwrist -11.199968440671388
lhand -38.808595389920356 -35.73364138850927
lfingers 7.125019999999983
lthumb -11.752388822867516 -6.030488151878963
rfemur -24.566666406518564 1.9660776950681487 20.37769151267965
rtibia 47.10210349122131
rfoot -7.511197346932828 -9.716882715386372
rtoes -1.2848370612397526
lfemur -14.13681521888871 -0.5369388277664522 -17.584727274531872
ltibia 40.96577629140524
lfoot -6.5355357770182625 -4.384419358338652
ltoes -6.042522479402953
